<svg width="340" height="200" viewBox="0 0 340 200" fill="none" xmlns="http://www.w3.org/2000/svg">
<g clip-path="url(#clip0_8675_533)">
<path d="M327.105 204.317C325.643 202.506 323.672 200.846 321.212 199.598C316.372 197.141 313.6 196.064 309.417 195.392C307.081 195.014 304.558 194.762 301.941 194.579C301.346 194.54 300.732 194.501 300.11 194.462C299.111 194.4 298.073 194.342 297.004 194.284C289.225 193.992 281.042 194.081 274.282 193.522C265.348 192.787 256.932 189.545 250.58 181.439C246.937 176.79 242.843 173.136 238.33 170.636C235.162 168.883 231.784 167.689 228.195 167.141C221.027 166.045 215.612 165.543 209.345 165.244H209.353C208.105 165.158 206.806 165.038 205.477 164.875C199.797 164.338 194.273 163.121 189.044 160.377C185.347 158.437 183.765 156.419 180.418 152.652C180.418 152.652 180.803 158.795 181.021 162.235C181.199 165.05 182.179 167.775 183.948 169.967C185.41 171.779 187.38 173.439 189.841 174.687C194.681 177.144 197.453 178.22 201.636 178.893C203.972 179.27 206.495 179.523 209.112 179.705C209.706 179.744 210.321 179.783 210.943 179.822C211.942 179.884 212.98 179.943 214.049 180.001C215.114 180.059 216.21 180.114 217.349 180.168C227.527 180.646 237.047 183.698 244.367 192.837C251.377 201.584 259.836 206.521 269.656 207.668C277.874 208.628 289.579 208.873 297.844 209.013C300.445 209.056 303.022 209.161 305.572 209.402C311.252 209.939 316.776 211.155 322.005 213.9C325.702 215.84 327.284 217.857 330.631 221.624C330.631 221.624 330.246 215.482 330.028 212.042C329.85 209.227 328.87 206.502 327.101 204.309L327.105 204.317Z" fill="white" fill-opacity="0.49"/>
<path d="M205.481 139.765C199.801 139.229 194.277 138.012 189.048 135.267C185.351 133.328 183.769 131.31 180.422 127.543C180.422 127.543 180.807 133.685 181.024 137.126C181.203 139.94 182.183 142.665 183.952 144.858C185.413 146.669 187.384 148.329 189.845 149.577C194.685 152.034 197.457 153.107 201.64 153.784C203.976 154.161 206.499 154.413 209.116 154.596C209.71 154.635 210.325 154.674 210.947 154.713C211.946 154.775 212.984 154.833 214.053 154.892C215.118 154.95 216.214 155.004 217.353 155.059C227.531 155.537 237.051 158.589 244.371 167.728C251.38 176.475 259.84 181.412 269.659 182.559C277.878 183.519 289.583 183.764 297.848 183.904C300.448 183.947 303.026 184.052 305.576 184.293C311.256 184.829 316.78 186.046 322.009 188.791C325.706 190.73 327.288 192.748 330.635 196.515C330.635 196.515 330.25 190.373 330.032 186.932C329.854 184.118 328.874 181.393 327.105 179.2C325.643 177.389 323.672 175.729 321.212 174.481C316.372 172.024 313.6 170.951 309.417 170.274C307.081 169.897 304.558 169.645 301.941 169.462C301.346 169.423 300.732 169.384 300.11 169.345C299.111 169.283 298.073 169.225 297.004 169.166C289.225 168.875 281.042 168.964 274.282 168.404C265.348 167.67 256.932 164.428 250.58 156.322C246.937 151.673 242.843 148.018 238.33 145.519C235.162 143.766 231.784 142.572 228.195 142.024C221.027 140.928 215.612 140.426 209.345 140.127H209.353C208.105 140.041 206.806 139.921 205.477 139.757L205.481 139.765Z" fill="white" fill-opacity="0.49"/>
<path d="M326.623 72.325C322.627 63.2516 317.064 55.0801 310.09 48.0359C303.104 40.9879 294.929 35.3899 285.793 31.3974C276.634 27.3972 266.767 25.3679 256.47 25.3679C246.172 25.3679 236.103 27.3972 226.944 31.3974C217.801 35.3938 209.66 40.9918 202.744 48.0398C195.836 55.084 190.343 63.2555 186.417 72.3289C182.525 81.3168 180.535 92.2835 180.496 102.496C180.496 102.496 180.9 109.163 181.083 112.063C181.262 114.878 182.242 117.603 184.01 119.795C185.472 121.607 187.443 123.267 189.904 124.515C194.744 126.972 197.516 128.045 201.699 128.721C204.035 129.098 206.558 129.351 209.174 129.533C209.769 129.572 210.383 129.611 211.005 129.65C212.004 129.712 213.042 129.771 214.111 129.829C215.176 129.887 216.273 129.942 217.412 129.996C227.589 130.474 237.11 133.526 244.43 142.665C251.439 151.412 259.898 156.349 269.718 157.496C277.936 158.456 289.642 158.701 297.906 158.841C300.507 158.884 303.085 158.989 305.635 159.23C311.314 159.767 316.838 160.983 322.067 163.728C325.725 165.648 327.311 167.643 330.589 171.336C330.534 170.473 330.192 165.034 329.994 161.874C329.815 159.059 328.835 156.334 327.067 154.141C325.605 152.33 323.634 150.67 321.173 149.422C319.595 148.621 318.238 147.968 316.978 147.428C320.815 142.432 324.058 136.947 326.623 131.077C328.454 126.882 329.869 122.52 330.868 118.026C330.868 118.026 333.438 108.226 332.276 93.9745C331.662 86.4056 329.628 79.1631 326.619 72.3289L326.623 72.325ZM302.152 144.407C302.124 144.407 302.097 144.403 302.07 144.399L302.062 144.407C302.012 144.407 301.961 144.399 301.91 144.395C301.316 144.357 300.701 144.318 300.079 144.279C299.08 144.217 298.042 144.158 296.973 144.1C289.194 143.808 281.011 143.898 274.251 143.338C265.317 142.603 256.901 139.361 250.549 131.256C246.906 126.606 242.813 122.952 238.299 120.452C235.131 118.699 231.753 117.506 228.165 116.957C220.996 115.861 215.581 115.36 209.314 115.06H209.322C208.074 114.975 206.776 114.854 205.446 114.691C201.854 114.353 198.32 113.731 194.888 112.635C194.211 108.914 193.861 105.128 193.861 101.337C193.861 66.7581 221.995 38.6243 256.574 38.6243C291.154 38.6243 319.288 66.7581 319.288 101.337C319.288 117.521 313.219 132.713 302.152 144.399V144.407Z" fill="white" fill-opacity="0.49"/>
</g>
<defs>
<clipPath id="clip0_8675_533">
<rect width="340" height="200" fill="white"/>
</clipPath>
</defs>
</svg>
