<?xml version="1.0" encoding="UTF-8"?>
<svg id="_Слой_1" data-name="Слой_1" xmlns="http://www.w3.org/2000/svg" viewBox="0 0 800 800">
  <defs>
    <style>
      .cls-1 {
        fill: #efede7;
      }
    </style>
  </defs>
  <polygon class="cls-1" points="448.86 407.92 398.5 407.92 398.5 384.05 441.7 384.05 441.7 366.84 398.5 366.84 398.5 343.5 447 343.5 447 326.28 380.63 326.28 380.63 425.13 448.86 425.13 448.86 407.92"/>
  <path class="cls-1" d="M491.15,402.47h34.01l9,22.66h20.61l-46.2-98.58-44.76,98.58h17.91l9.44-22.66ZM508.56,360.68l10.4,26.17h-21.3l10.9-26.17Z"/>
  <polygon class="cls-1" points="583.23 364.65 653.17 425.08 653.17 326.28 635.43 326.28 635.67 386.96 565.59 326.55 565.59 425.13 583.61 425.13 583.23 364.65"/>
  <path class="cls-1" d="M325.78,502.95c6.23,0,11.59-.97,15.92-2.88,4.35-1.92,7.89-4.53,10.51-7.76,2.6-3.19,4.54-6.8,5.78-10.73,1.22-3.89,1.84-7.85,1.84-11.75,0-6.72-1.46-12.55-4.35-17.31-2.89-4.77-7.1-8.49-12.5-11.06h0c-5.35-2.54-11.85-3.82-19.33-3.82h-28.48v98.84h17.87v-33.53h12.73ZM313.05,454.84h13.13c3.24,0,5.92.52,7.95,1.53,2.03,1.02,3.62,2.32,4.74,3.87,1.15,1.6,1.98,3.31,2.47,5.06.5,1.79.75,3.4.75,4.78s-.27,3.01-.81,4.83c-.54,1.81-1.41,3.56-2.61,5.21-1.16,1.6-2.82,2.95-4.94,4.01-2.12,1.06-4.8,1.6-7.95,1.6h-12.73v-30.89Z"/>
  <path class="cls-1" d="M398.5,502.95h12.73c.31,0,.62,0,.93-.01l21.75,33.54h20.68l-23.94-38.09c2.98-1.71,5.5-3.76,7.52-6.12,2.7-3.16,4.67-6.76,5.87-10.7,1.18-3.89,1.77-7.84,1.77-11.74,0-5.09-.9-9.69-2.69-13.67-1.79-3.99-4.32-7.4-7.53-10.15-3.2-2.74-7.13-4.85-11.68-6.26-4.51-1.4-9.53-2.11-14.93-2.11h-28.35v98.84h17.87v-33.53ZM398.5,454.84h13.13c3.15,0,5.77.53,7.8,1.59,2.04,1.06,3.66,2.4,4.83,3.96,1.19,1.6,2.04,3.3,2.53,5.05.5,1.79.75,3.44.75,4.92,0,1.55-.27,3.24-.81,5.02-.53,1.76-1.4,3.44-2.59,4.99-1.16,1.52-2.82,2.81-4.94,3.83-2.12,1.02-4.85,1.54-8.1,1.54h-12.6v-30.89Z"/>
  <rect class="cls-1" x="481.48" y="437.63" width="17.87" height="98.84"/>
  <polygon class="cls-1" points="633.77 536.47 633.77 437.63 583.46 501.49 534 437.63 534 536.47 551.34 536.47 551.34 485.41 583.44 529.73 616.03 483.27 616.03 536.47 633.77 536.47"/>
  <polygon class="cls-1" points="719.55 454.84 719.55 437.63 653.17 437.63 653.17 536.47 721.4 536.47 721.4 519.26 671.05 519.26 671.05 495.39 714.25 495.39 714.25 478.18 671.05 478.18 671.05 454.84 719.55 454.84"/>
  <path class="cls-1" d="M282.73,512.47c-2.03-2.52-4.78-4.83-8.2-6.57-6.74-3.42-10.59-4.91-16.41-5.85-3.25-.53-6.76-.88-10.4-1.13-.83-.05-1.68-.11-2.55-.16-1.39-.08-2.83-.17-4.32-.25-10.82-.41-22.21-.28-31.62-1.06-12.43-1.02-24.14-5.53-32.98-16.82-5.07-6.47-10.76-11.55-17.05-15.03-4.41-2.44-9.11-4.1-14.1-4.86-9.98-1.53-17.51-2.22-26.23-2.64,0,0,0,0,0,0-1.74-.12-3.54-.29-5.39-.51-7.9-.75-15.59-2.44-22.87-6.26-5.14-2.7-7.34-5.5-12.01-10.75,0,0,.54,8.55.84,13.34.25,3.92,1.61,7.71,4.07,10.76,2.03,2.52,4.78,4.83,8.2,6.57,6.74,3.42,10.59,4.91,16.41,5.85,3.25.53,6.76.88,10.4,1.13.83.05,1.68.11,2.55.16,1.39.08,2.83.17,4.32.25,1.48.08,3.01.16,4.59.23,14.16.67,27.41,4.91,37.6,17.63,9.75,12.17,21.52,19.04,35.19,20.64,11.44,1.34,27.73,1.68,39.23,1.87,3.62.06,7.21.21,10.76.54,7.9.75,15.59,2.44,22.87,6.26,5.14,2.7,7.34,5.5,12.01,10.75,0,0-.54-8.55-.84-13.34-.25-3.92-1.61-7.71-4.07-10.76Z"/>
  <path class="cls-1" d="M83.51,429.73c2.03,2.52,4.78,4.83,8.2,6.57,6.74,3.42,10.59,4.91,16.41,5.85,3.25.53,6.76.88,10.4,1.13.83.05,1.68.11,2.55.16,1.39.08,2.83.17,4.32.25,1.48.08,3.01.16,4.59.23,14.16.67,27.41,4.91,37.6,17.63,9.75,12.17,21.52,19.04,35.19,20.64,11.44,1.34,27.73,1.68,39.23,1.87,3.62.06,7.21.21,10.76.54,7.9.75,15.59,2.44,22.87,6.26,5.14,2.7,7.34,5.5,12.01,10.75,0,0-.54-8.55-.84-13.34-.25-3.92-1.61-7.71-4.07-10.76-2.03-2.52-4.78-4.83-8.2-6.57-6.74-3.42-10.59-4.91-16.41-5.85-3.25-.53-6.76-.88-10.4-1.13-.83-.05-1.68-.11-2.55-.16-1.39-.09-2.83-.17-4.32-.25-10.82-.41-22.21-.28-31.62-1.06-12.43-1.02-24.14-5.53-32.98-16.82-5.07-6.47-10.76-11.55-17.05-15.03-4.41-2.44-9.11-4.1-14.1-4.86-9.98-1.53-17.51-2.22-26.23-2.64,0,0,0,0,0,0-1.74-.12-3.54-.29-5.39-.51-7.9-.75-15.59-2.44-22.87-6.26-5.14-2.7-7.34-5.5-12.01-10.75,0,0,.54,8.55.84,13.34.25,3.92,1.61,7.71,4.07,10.76Z"/>
  <path class="cls-1" d="M83.6,394.84c2.03,2.52,4.78,4.83,8.2,6.57,6.74,3.42,10.59,4.91,16.41,5.85,3.25.53,6.76.88,10.4,1.13.83.05,1.68.11,2.55.16,1.39.09,2.83.17,4.32.25,1.48.08,3.01.16,4.59.23,14.16.67,27.41,4.91,37.6,17.63,9.75,12.17,21.52,19.04,35.19,20.64,11.44,1.34,27.73,1.68,39.23,1.87,3.62.06,7.21.21,10.76.54,7.9.75,15.59,2.44,22.87,6.26,5.09,2.67,7.3,5.45,11.86,10.58-.07-1.2-.55-8.77-.83-13.17-.25-3.92-1.61-7.71-4.07-10.76-2.03-2.52-4.78-4.83-8.2-6.57-2.2-1.12-4.09-2.02-5.84-2.78,5.34-6.95,9.85-14.59,13.42-22.76,2.55-5.84,4.52-11.91,5.91-18.16,0,0,1.08-4.11,1.78-11.1.1,4.55.43,7.52.49,7.27.55,2.45,1.27,4.84,2.17,7.15,2.3,5.9,5.61,11.2,9.84,15.75,4.24,4.56,9.51,8.22,15.63,10.88,6.12,2.66,13.1,4.05,20.73,4.14.37,0,.74.01,1.1.01,4.35,0,8.38-.48,12.01-1.44,3.91-1.03,7.33-2.29,10.17-3.73,2.81-1.43,4.98-2.66,6.43-3.66l.83-.57-7.58-16.09-1.18,1c-2.2,1.86-5.15,3.55-8.76,5.04h0c-3.59,1.48-7.83,2.23-12.6,2.23s-9.26-.84-13.12-2.49c-3.85-1.65-7.2-3.96-9.94-6.88-2.75-2.92-4.89-6.46-6.38-10.53-1.49-4.09-2.25-8.63-2.25-13.51s.84-9.07,2.49-13.06c1.66-4,3.93-7.56,6.73-10.58,2.79-3.01,6.1-5.36,9.82-7.01,3.72-1.65,7.66-2.48,11.71-2.48,4.49,0,8.56.81,12.1,2.41,3.63,1.64,6.69,3.3,9.1,4.94l1.19.81,7.05-16.71-.86-.53c-3.33-2.07-7.49-3.96-12.37-5.61-4.92-1.67-10.55-2.51-16.75-2.51-7.02,0-13.59,1.28-19.55,3.81-5.95,2.52-11.17,6.12-15.5,10.68-4.33,4.56-7.72,10.02-10.06,16.23-.15.39-.27.79-.41,1.18-.82,3.11-1.37,6.41-1.73,9.66-.04-2.58-.17-5.3-.4-8.16-.86-10.53-3.68-20.61-7.87-30.12-5.56-12.62-13.3-24-23.01-33.8-9.72-9.81-21.1-17.6-33.81-23.16-12.75-5.57-26.47-8.39-40.81-8.39s-28.34,2.82-41.09,8.39c-12.72,5.56-24.05,13.35-33.68,23.16-9.61,9.8-17.26,21.18-22.72,33.8-5.41,12.51-8.18,27.77-8.24,41.98,0,0,.56,9.28.82,13.31.25,3.92,1.61,7.71,4.07,10.76ZM184.57,281.9c48.12,0,87.27,39.15,87.27,87.27,0,22.52-8.45,43.66-23.85,59.93-.04,0-.08,0-.11,0,0,0,0,0-.01.01-.07,0-.14-.01-.21-.02-.83-.05-1.68-.11-2.55-.16-1.39-.09-2.83-.17-4.32-.25-10.82-.41-22.21-.28-31.62-1.06-12.43-1.02-24.14-5.53-32.98-16.82-5.07-6.47-10.76-11.55-17.05-15.03-4.41-2.44-9.11-4.1-14.1-4.86-9.98-1.53-17.51-2.22-26.23-2.64,0,0,0,0,0,0-1.74-.12-3.54-.29-5.39-.51-5-.47-9.91-1.33-14.69-2.86-.94-5.17-1.43-10.45-1.43-15.72,0-48.12,39.15-87.27,87.27-87.27Z"/>
</svg>