<svg width="800" height="337" viewBox="0 0 800 337" fill="none" xmlns="http://www.w3.org/2000/svg">
<path d="M449.26 175.5H398.9V151.63H442.1V134.42H398.9V111.08H447.4V93.8604H381.03V192.71H449.26V175.5Z" fill="#0E2742"/>
<path d="M491.55 170.05H525.56L534.56 192.71H555.17L508.97 94.1299L464.21 192.71H482.12L491.56 170.05H491.55ZM508.96 128.26L519.36 154.43H498.06L508.96 128.26Z" fill="#0E2742"/>
<path d="M583.63 132.23L653.57 192.66V93.8604H635.83L636.07 154.54L565.99 94.1303V192.71H584.01L583.63 132.23Z" fill="#0E2742"/>
<path d="M326.18 270.53C332.41 270.53 337.77 269.56 342.1 267.65C346.45 265.73 349.99 263.12 352.61 259.89C355.21 256.7 357.15 253.09 358.39 249.16C359.61 245.27 360.23 241.31 360.23 237.41C360.23 230.69 358.77 224.86 355.88 220.1C352.99 215.33 348.78 211.61 343.38 209.04C338.03 206.5 331.53 205.22 324.05 205.22H295.57V304.06H313.44V270.53H326.17H326.18ZM313.45 222.42H326.58C329.82 222.42 332.5 222.94 334.53 223.95C336.56 224.97 338.15 226.27 339.27 227.82C340.42 229.42 341.25 231.13 341.74 232.88C342.24 234.67 342.49 236.28 342.49 237.66C342.49 239.04 342.22 240.67 341.68 242.49C341.14 244.3 340.27 246.05 339.07 247.7C337.91 249.3 336.25 250.65 334.13 251.71C332.01 252.77 329.33 253.31 326.18 253.31H313.45V222.42Z" fill="#0E2742"/>
<path d="M398.9 270.53H411.63C411.94 270.53 412.25 270.53 412.56 270.52L434.31 304.06H454.99L431.05 265.97C434.03 264.26 436.55 262.21 438.57 259.85C441.27 256.69 443.24 253.09 444.44 249.15C445.62 245.26 446.21 241.31 446.21 237.41C446.21 232.32 445.31 227.72 443.52 223.74C441.73 219.75 439.2 216.34 435.99 213.59C432.79 210.85 428.86 208.74 424.31 207.33C419.8 205.93 414.78 205.22 409.38 205.22H381.03V304.06H398.9V270.53ZM398.9 222.42H412.03C415.18 222.42 417.8 222.95 419.83 224.01C421.87 225.07 423.49 226.41 424.66 227.97C425.85 229.57 426.7 231.27 427.19 233.02C427.69 234.81 427.94 236.46 427.94 237.94C427.94 239.49 427.67 241.18 427.13 242.96C426.6 244.72 425.73 246.4 424.54 247.95C423.38 249.47 421.72 250.76 419.6 251.78C417.48 252.8 414.75 253.32 411.5 253.32H398.9V222.43V222.42Z" fill="#0E2742"/>
<path d="M499.75 205.21H481.88V304.05H499.75V205.21Z" fill="#0E2742"/>
<path d="M634.17 304.05V205.21L583.86 269.07L534.4 205.21V304.05H551.74V252.99L583.84 297.31L616.43 250.85V304.05H634.17Z" fill="#0E2742"/>
<path d="M719.95 222.42V205.21H653.57V304.05H721.8V286.84H671.45V262.97H714.65V245.76H671.45V222.42H719.95Z" fill="#0E2742"/>
<path d="M283.13 280.05C281.1 277.53 278.35 275.22 274.93 273.48C268.19 270.06 264.34 268.57 258.52 267.63C255.27 267.1 251.76 266.75 248.12 266.5C247.29 266.45 246.44 266.39 245.57 266.34C244.18 266.26 242.74 266.17 241.25 266.09C230.43 265.68 219.04 265.81 209.63 265.03C197.2 264.01 185.49 259.5 176.65 248.21C171.58 241.74 165.89 236.66 159.6 233.18C155.19 230.74 150.49 229.08 145.5 228.32C135.52 226.79 127.99 226.1 119.27 225.68C117.53 225.56 115.73 225.39 113.88 225.17C105.98 224.42 98.29 222.73 91.01 218.91C85.87 216.21 83.67 213.41 79 208.16C79 208.16 79.54 216.71 79.84 221.5C80.09 225.42 81.45 229.21 83.91 232.26C85.94 234.78 88.69 237.09 92.11 238.83C98.85 242.25 102.7 243.74 108.52 244.68C111.77 245.21 115.28 245.56 118.92 245.81C119.75 245.86 120.6 245.92 121.47 245.97C122.86 246.05 124.3 246.14 125.79 246.22C127.27 246.3 128.8 246.38 130.38 246.45C144.54 247.12 157.79 251.36 167.98 264.08C177.73 276.25 189.5 283.12 203.17 284.72C214.61 286.06 230.9 286.4 242.4 286.59C246.02 286.65 249.61 286.8 253.16 287.13C261.06 287.88 268.75 289.57 276.03 293.39C281.17 296.09 283.37 298.89 288.04 304.14C288.04 304.14 287.5 295.59 287.2 290.8C286.95 286.88 285.59 283.09 283.13 280.04V280.05Z" fill="#0E2742"/>
<path d="M83.91 197.31C85.94 199.83 88.69 202.14 92.11 203.88C98.85 207.3 102.7 208.79 108.52 209.73C111.77 210.26 115.28 210.61 118.92 210.86C119.75 210.91 120.6 210.97 121.47 211.02C122.86 211.1 124.3 211.19 125.79 211.27C127.27 211.35 128.8 211.43 130.38 211.5C144.54 212.17 157.79 216.41 167.98 229.13C177.73 241.3 189.5 248.17 203.17 249.77C214.61 251.11 230.9 251.45 242.4 251.64C246.02 251.7 249.61 251.85 253.16 252.18C261.06 252.93 268.75 254.62 276.03 258.44C281.17 261.14 283.37 263.94 288.04 269.19C288.04 269.19 287.5 260.64 287.2 255.85C286.95 251.93 285.59 248.14 283.13 245.09C281.1 242.57 278.35 240.26 274.93 238.52C268.19 235.1 264.34 233.61 258.52 232.67C255.27 232.14 251.76 231.79 248.12 231.54C247.29 231.49 246.44 231.43 245.57 231.38C244.18 231.29 242.74 231.21 241.25 231.13C230.43 230.72 219.04 230.85 209.63 230.07C197.2 229.05 185.49 224.54 176.65 213.25C171.58 206.78 165.89 201.7 159.6 198.22C155.19 195.78 150.49 194.12 145.5 193.36C135.52 191.83 127.99 191.14 119.27 190.72C117.53 190.6 115.73 190.43 113.88 190.21C105.98 189.46 98.29 187.77 91.01 183.95C85.87 181.25 83.67 178.45 79 173.2C79 173.2 79.54 181.75 79.84 186.54C80.09 190.46 81.45 194.25 83.91 197.3V197.31Z" fill="#0E2742"/>
<path d="M83.9998 162.42C86.0298 164.94 88.7798 167.25 92.1998 168.99C98.9398 172.41 102.79 173.9 108.61 174.84C111.86 175.37 115.37 175.72 119.01 175.97C119.84 176.02 120.69 176.08 121.56 176.13C122.95 176.22 124.39 176.3 125.88 176.38C127.36 176.46 128.89 176.54 130.47 176.61C144.63 177.28 157.88 181.52 168.07 194.24C177.82 206.41 189.59 213.28 203.26 214.88C214.7 216.22 230.99 216.56 242.49 216.75C246.11 216.81 249.7 216.96 253.25 217.29C261.15 218.04 268.84 219.73 276.12 223.55C281.21 226.22 283.42 229 287.98 234.13C287.91 232.93 287.43 225.36 287.15 220.96C286.9 217.04 285.54 213.25 283.08 210.2C281.05 207.68 278.3 205.37 274.88 203.63C272.68 202.51 270.79 201.61 269.04 200.85C274.38 193.9 278.89 186.26 282.46 178.09C285.01 172.25 286.98 166.18 288.37 159.93C288.37 159.93 289.45 155.82 290.15 148.83C290.25 153.38 290.58 156.35 290.64 156.1C291.19 158.55 291.91 160.94 292.81 163.25C295.11 169.15 298.42 174.45 302.65 179C306.89 183.56 312.16 187.22 318.28 189.88C324.4 192.54 331.38 193.93 339.01 194.02C339.38 194.02 339.75 194.03 340.11 194.03C344.46 194.03 348.49 193.55 352.12 192.59C356.03 191.56 359.45 190.3 362.29 188.86C365.1 187.43 367.27 186.2 368.72 185.2L369.55 184.63L361.97 168.54L360.79 169.54C358.59 171.4 355.64 173.09 352.03 174.58C348.44 176.06 344.2 176.81 339.43 176.81C334.66 176.81 330.17 175.97 326.31 174.32C322.46 172.67 319.11 170.36 316.37 167.44C313.62 164.52 311.48 160.98 309.99 156.91C308.5 152.82 307.74 148.28 307.74 143.4C307.74 138.52 308.58 134.33 310.23 130.34C311.89 126.34 314.16 122.78 316.96 119.76C319.75 116.75 323.06 114.4 326.78 112.75C330.5 111.1 334.44 110.27 338.49 110.27C342.98 110.27 347.05 111.08 350.59 112.68C354.22 114.32 357.28 115.98 359.69 117.62L360.88 118.43L367.93 101.72L367.07 101.19C363.74 99.12 359.58 97.23 354.7 95.58C349.78 93.91 344.15 93.07 337.95 93.07C330.93 93.07 324.36 94.35 318.4 96.88C312.45 99.4 307.23 103 302.9 107.56C298.57 112.12 295.18 117.58 292.84 123.79C292.69 124.18 292.57 124.58 292.43 124.97C291.61 128.08 291.06 131.38 290.7 134.63C290.66 132.05 290.53 129.33 290.3 126.47C289.44 115.94 286.62 105.86 282.43 96.35C276.87 83.73 269.13 72.35 259.42 62.55C249.7 52.74 238.32 44.95 225.61 39.39C212.86 33.82 199.14 31 184.8 31C170.46 31 156.46 33.82 143.71 39.39C130.99 44.95 119.66 52.74 110.03 62.55C100.42 72.35 92.7698 83.73 87.3098 96.35C81.8998 108.86 79.1298 124.12 79.0698 138.33C79.0698 138.33 79.6298 147.61 79.8898 151.64C80.1398 155.56 81.4998 159.35 83.9598 162.4L83.9998 162.42ZM184.97 49.48C233.09 49.48 272.24 88.63 272.24 136.75C272.24 159.27 263.79 180.41 248.39 196.68C248.35 196.68 248.31 196.68 248.28 196.68C248.28 196.68 248.28 196.68 248.27 196.69C248.2 196.69 248.13 196.68 248.06 196.67C247.23 196.62 246.38 196.56 245.51 196.51C244.12 196.42 242.68 196.34 241.19 196.26C230.37 195.85 218.98 195.98 209.57 195.2C197.14 194.18 185.43 189.67 176.59 178.38C171.52 171.91 165.83 166.83 159.54 163.35C155.13 160.91 150.43 159.25 145.44 158.49C135.46 156.96 127.93 156.27 119.21 155.85C117.47 155.73 115.67 155.56 113.82 155.34C108.82 154.87 103.91 154.01 99.1298 152.48C98.1898 147.31 97.6998 142.03 97.6998 136.76C97.6998 88.64 136.85 49.49 184.97 49.49V49.48Z" fill="#0E2742"/>
</svg>
