<?xml version="1.0" encoding="UTF-8"?>
<svg id="_Слой_1" data-name="Слой_1" xmlns="http://www.w3.org/2000/svg" viewBox="0 0 800 800">
  <defs>
    <style>
      .cls-1 {
        fill: #0e2742;
      }
    </style>
  </defs>
  <path class="cls-1" d="M581.62,607.89c-3.76-4.66-8.83-8.93-15.16-12.14-12.45-6.32-19.58-9.09-30.34-10.82-6.01-.97-12.5-1.62-19.23-2.09-1.53-.1-3.11-.2-4.71-.3-2.57-.16-5.24-.31-7.99-.46-20.01-.75-41.06-.52-58.45-1.96-22.98-1.89-44.63-10.23-60.97-31.08-9.37-11.96-19.9-21.36-31.51-27.79-8.15-4.51-16.84-7.58-26.07-8.99-18.44-2.82-32.37-4.11-48.49-4.88,0,0,.02,0,.02,0-3.21-.22-6.55-.53-9.97-.95-14.61-1.38-28.82-4.51-42.27-11.57-9.51-4.99-13.58-10.18-22.19-19.87,0,0,.99,15.8,1.55,24.65.46,7.24,2.98,14.25,7.53,19.89,3.76,4.66,8.83,8.93,15.16,12.14,12.45,6.32,19.58,9.09,30.34,10.82,6.01.97,12.5,1.62,19.23,2.09,1.53.1,3.11.2,4.71.3,2.57.16,5.24.31,7.99.46,2.74.15,5.56.29,8.49.43,26.18,1.23,50.67,9.08,69.5,32.59,18.03,22.5,39.79,35.2,65.05,38.15,21.14,2.47,51.25,3.1,72.51,3.46,6.69.11,13.32.38,19.88,1,14.61,1.38,28.82,4.51,42.27,11.57,9.51,4.99,13.58,10.18,22.19,19.87,0,0-.99-15.8-1.55-24.65-.46-7.24-2.98-14.25-7.53-19.89Z"/>
  <path class="cls-1" d="M268.76,441.84c-14.61-1.38-28.82-4.51-42.27-11.57-9.51-4.99-13.58-10.18-22.19-19.87,0,0,.99,15.8,1.55,24.65.46,7.24,2.98,14.25,7.53,19.89,3.76,4.66,8.83,8.93,15.16,12.14,12.45,6.32,19.58,9.08,30.34,10.82,6.01.97,12.5,1.62,19.23,2.09,1.53.1,3.11.2,4.71.3,2.57.16,5.24.31,7.99.46,2.74.15,5.56.29,8.49.43,26.18,1.23,50.67,9.08,69.5,32.59,18.03,22.5,39.79,35.2,65.05,38.15,21.14,2.47,51.25,3.1,72.51,3.46,6.69.11,13.32.38,19.88,1,14.61,1.38,28.82,4.51,42.27,11.57,9.51,4.99,13.58,10.18,22.19,19.87,0,0-.99-15.8-1.55-24.65-.46-7.24-2.98-14.25-7.53-19.89-3.76-4.66-8.83-8.93-15.16-12.14-12.45-6.32-19.58-9.08-30.34-10.82-6.01-.97-12.5-1.62-19.23-2.09-1.53-.1-3.11-.2-4.71-.3-2.57-.16-5.24-.31-7.99-.46-20.01-.75-41.06-.52-58.45-1.96-22.98-1.89-44.63-10.23-60.97-31.08-9.37-11.96-19.9-21.36-31.51-27.79-8.15-4.51-16.84-7.58-26.07-8.99-18.44-2.82-32.37-4.11-48.49-4.88,0,0,.02,0,.02,0-3.21-.22-6.55-.53-9.97-.95Z"/>
  <path class="cls-1" d="M580.38,268.36c-10.28-23.34-24.59-44.36-42.53-62.48-17.97-18.13-39-32.53-62.5-42.8-23.56-10.29-48.94-15.51-75.43-15.51s-52.39,5.22-75.95,15.51c-23.52,10.28-44.46,24.68-62.25,42.81-17.77,18.12-31.9,39.14-42,62.48-10.01,23.12-15.13,51.33-15.23,77.6,0,0,1.04,17.15,1.51,24.61.46,7.24,2.98,14.25,7.53,19.89,3.76,4.66,8.83,8.93,15.16,12.14,12.45,6.32,19.58,9.08,30.34,10.82,6.01.97,12.5,1.62,19.23,2.09,1.53.1,3.11.2,4.71.3,2.57.16,5.24.31,7.99.46,2.74.15,5.56.29,8.49.43,26.18,1.23,50.67,9.08,69.5,32.59,18.03,22.5,39.79,35.2,65.05,38.15,21.14,2.47,51.25,3.1,72.51,3.46,6.69.11,13.32.38,19.88,1,14.61,1.38,28.82,4.51,42.27,11.57,9.41,4.94,13.49,10.07,21.92,19.57-.14-2.22-1.02-16.21-1.53-24.34-.46-7.24-2.98-14.25-7.53-19.89-3.76-4.66-8.83-8.93-15.16-12.14-4.06-2.06-7.55-3.74-10.79-5.13,9.87-12.85,18.21-26.96,24.81-42.06,4.71-10.79,8.35-22.01,10.92-33.57,0,0,6.61-25.21,3.62-61.87-1.58-19.47-6.81-38.1-14.55-55.68ZM517.43,453.78c-.07,0-.14-.01-.21-.02,0,0-.02.02-.02.02-.13,0-.26-.02-.39-.03-1.53-.1-3.11-.2-4.71-.3-2.57-.16-5.24-.31-7.99-.46-20.01-.75-41.06-.52-58.45-1.96-22.98-1.89-44.63-10.23-60.97-31.08-9.37-11.96-19.9-21.36-31.51-27.79-8.15-4.51-16.84-7.58-26.07-8.99-18.44-2.82-32.37-4.11-48.49-4.88,0,0,.02,0,.02,0-3.21-.22-6.55-.53-9.97-.95-9.24-.87-18.33-2.47-27.16-5.29-1.74-9.57-2.64-19.31-2.64-29.06,0-88.95,72.37-161.32,161.32-161.32s161.32,72.37,161.32,161.32c0,41.63-15.61,80.71-44.08,110.77Z"/>
</svg>