<svg width="340" height="200" viewBox="0 0 340 200" fill="none" xmlns="http://www.w3.org/2000/svg">
<g clip-path="url(#clip0_8709_16245)">
<rect width="340" height="200" fill="#3A3A3A"/>
<mask id="mask0_8709_16245" style="mask-type:luminance" maskUnits="userSpaceOnUse" x="0" y="0" width="340" height="200">
<path d="M340 0H0V200H340V0Z" fill="white"/>
</mask>
<g mask="url(#mask0_8709_16245)">
<path d="M320.789 179.662C320.234 178.974 319.487 178.345 318.553 177.871C316.717 176.939 315.665 176.53 314.078 176.275C313.191 176.132 312.234 176.036 311.241 175.967C311.016 175.952 310.783 175.937 310.547 175.923C310.168 175.899 309.774 175.877 309.368 175.855C306.417 175.744 303.312 175.778 300.747 175.566C297.357 175.287 294.164 174.057 291.754 170.981C290.372 169.217 288.818 167.831 287.106 166.882C285.904 166.217 284.622 165.764 283.261 165.556C280.541 165.14 278.486 164.95 276.108 164.837H276.111C275.638 164.804 275.145 164.758 274.641 164.696C272.486 164.493 270.39 164.031 268.406 162.99C267.003 162.254 266.403 161.488 265.133 160.059C265.133 160.059 265.279 162.39 265.361 163.695C265.429 164.763 265.801 165.797 266.472 166.629C267.027 167.316 267.775 167.946 268.708 168.419C270.545 169.352 271.596 169.76 273.183 170.015C274.07 170.158 275.027 170.254 276.02 170.324C276.245 170.338 276.479 170.353 276.715 170.368C277.094 170.391 277.487 170.414 277.893 170.436C278.297 170.458 278.713 170.478 279.145 170.499C283.007 170.681 286.619 171.838 289.397 175.306C292.056 178.625 295.266 180.498 298.991 180.933C302.11 181.298 306.551 181.39 309.687 181.444C310.673 181.46 311.651 181.5 312.619 181.591C314.774 181.795 316.87 182.256 318.854 183.298C320.257 184.034 320.857 184.799 322.127 186.228C322.127 186.228 321.981 183.898 321.898 182.593C321.83 181.525 321.459 180.491 320.788 179.659L320.789 179.662Z" fill="white"/>
<path d="M274.645 155.168C272.49 154.965 270.394 154.503 268.41 153.462C267.007 152.726 266.407 151.96 265.137 150.531C265.137 150.531 265.283 152.861 265.365 154.167C265.433 155.235 265.805 156.269 266.476 157.101C267.031 157.788 267.778 158.418 268.712 158.891C270.549 159.823 271.6 160.231 273.187 160.487C274.074 160.63 275.031 160.726 276.024 160.795C276.249 160.81 276.482 160.825 276.718 160.84C277.098 160.863 277.491 160.885 277.897 160.908C278.301 160.93 278.717 160.95 279.149 160.971C283.011 161.152 286.623 162.31 289.401 165.778C292.06 169.097 295.27 170.97 298.995 171.405C302.114 171.769 306.555 171.862 309.691 171.915C310.677 171.932 311.655 171.972 312.623 172.063C314.778 172.267 316.874 172.728 318.858 173.77C320.26 174.506 320.861 175.271 322.131 176.7C322.131 176.7 321.985 174.37 321.902 173.065C321.834 171.997 321.463 170.963 320.791 170.131C320.237 169.443 319.489 168.814 318.555 168.34C316.719 167.408 315.667 167.001 314.08 166.744C313.194 166.601 312.236 166.505 311.244 166.436C311.018 166.421 310.785 166.406 310.549 166.392C310.17 166.368 309.776 166.346 309.371 166.324C306.419 166.213 303.314 166.247 300.749 166.035C297.36 165.756 294.166 164.526 291.756 161.45C290.374 159.686 288.821 158.3 287.108 157.351C285.906 156.686 284.624 156.233 283.263 156.025C280.543 155.609 278.488 155.419 276.111 155.306H276.114C275.64 155.273 275.148 155.227 274.643 155.165L274.645 155.168Z" fill="white"/>
<path d="M320.604 129.582C319.088 126.139 316.977 123.039 314.331 120.366C311.68 117.692 308.578 115.568 305.112 114.053C301.637 112.536 297.893 111.766 293.986 111.766C290.079 111.766 286.259 112.536 282.783 114.053C279.314 115.57 276.226 117.694 273.602 120.368C270.98 123.041 268.896 126.141 267.407 129.584C265.93 132.994 265.175 137.155 265.16 141.03C265.16 141.03 265.314 143.559 265.383 144.66C265.451 145.727 265.822 146.761 266.494 147.593C267.048 148.281 267.796 148.911 268.73 149.384C270.566 150.316 271.618 150.723 273.205 150.98C274.091 151.123 275.049 151.219 276.041 151.288C276.267 151.303 276.5 151.318 276.736 151.332C277.115 151.356 277.509 151.378 277.914 151.4C278.319 151.422 278.735 151.443 279.167 151.464C283.028 151.645 286.641 152.803 289.418 156.271C292.077 159.59 295.287 161.463 299.013 161.898C302.131 162.262 306.572 162.355 309.708 162.408C310.695 162.424 311.673 162.464 312.64 162.556C314.795 162.759 316.891 163.221 318.875 164.262C320.263 164.991 320.865 165.748 322.108 167.149C322.088 166.821 321.958 164.758 321.883 163.559C321.815 162.491 321.443 161.457 320.772 160.625C320.217 159.938 319.47 159.308 318.536 158.834C317.937 158.53 317.422 158.283 316.944 158.078C318.4 156.182 319.63 154.101 320.604 151.874C321.299 150.282 321.836 148.627 322.215 146.922C322.215 146.922 323.19 143.204 322.749 137.796C322.515 134.925 321.744 132.177 320.602 129.584L320.604 129.582ZM311.319 156.932C311.308 156.932 311.298 156.93 311.288 156.929L311.285 156.932C311.266 156.932 311.246 156.929 311.227 156.927C311.002 156.912 310.769 156.898 310.533 156.883C310.154 156.859 309.76 156.837 309.354 156.815C306.403 156.704 303.298 156.738 300.733 156.526C297.343 156.247 294.15 155.017 291.74 151.942C290.358 150.178 288.804 148.791 287.092 147.843C285.89 147.177 284.608 146.725 283.247 146.517C280.527 146.101 278.472 145.91 276.094 145.797H276.097C275.624 145.764 275.131 145.719 274.627 145.657C273.264 145.528 271.923 145.292 270.621 144.876C270.364 143.465 270.231 142.028 270.231 140.59C270.231 127.47 280.906 116.795 294.026 116.795C307.146 116.795 317.821 127.47 317.821 140.59C317.821 146.73 315.518 152.495 311.319 156.929V156.932Z" fill="white"/>
</g>
</g>
<defs>
<clipPath id="clip0_8709_16245">
<rect width="340" height="200" fill="white"/>
</clipPath>
</defs>
</svg>
