<svg width="800" height="337" viewBox="0 0 800 337" fill="none" xmlns="http://www.w3.org/2000/svg">
<path d="M448.86 171.92H398.5V148.05H441.7V130.84H398.5V107.5H447V90.2803H380.63V189.13H448.86V171.92Z" fill="white"/>
<path d="M491.15 166.47H525.16L534.16 189.13H554.77L508.57 90.5498L463.81 189.13H481.72L491.16 166.47H491.15ZM508.56 124.68L518.96 150.85H497.66L508.56 124.68Z" fill="white"/>
<path d="M583.23 128.65L653.17 189.08V90.2803H635.43L635.67 150.96L565.59 90.5503V189.13H583.61L583.23 128.65Z" fill="white"/>
<path d="M325.78 266.95C332.01 266.95 337.37 265.98 341.7 264.07C346.05 262.15 349.59 259.54 352.21 256.31C354.81 253.12 356.75 249.51 357.99 245.58C359.21 241.69 359.83 237.73 359.83 233.83C359.83 227.11 358.37 221.28 355.48 216.52C352.59 211.75 348.38 208.03 342.98 205.46C337.63 202.92 331.13 201.64 323.65 201.64H295.17V300.48H313.04V266.95H325.77H325.78ZM313.05 218.84H326.18C329.42 218.84 332.1 219.36 334.13 220.37C336.16 221.39 337.75 222.69 338.87 224.24C340.02 225.84 340.85 227.55 341.34 229.3C341.84 231.09 342.09 232.7 342.09 234.08C342.09 235.46 341.82 237.09 341.28 238.91C340.74 240.72 339.87 242.47 338.67 244.12C337.51 245.72 335.85 247.07 333.73 248.13C331.61 249.19 328.93 249.73 325.78 249.73H313.05V218.84Z" fill="white"/>
<path d="M398.5 266.95H411.23C411.54 266.95 411.85 266.95 412.16 266.94L433.91 300.48H454.59L430.65 262.39C433.63 260.68 436.15 258.63 438.17 256.27C440.87 253.11 442.84 249.51 444.04 245.57C445.22 241.68 445.81 237.73 445.81 233.83C445.81 228.74 444.91 224.14 443.12 220.16C441.33 216.17 438.8 212.76 435.59 210.01C432.39 207.27 428.46 205.16 423.91 203.75C419.4 202.35 414.38 201.64 408.98 201.64H380.63V300.48H398.5V266.95ZM398.5 218.84H411.63C414.78 218.84 417.4 219.37 419.43 220.43C421.47 221.49 423.09 222.83 424.26 224.39C425.45 225.99 426.3 227.69 426.79 229.44C427.29 231.23 427.54 232.88 427.54 234.36C427.54 235.91 427.27 237.6 426.73 239.38C426.2 241.14 425.33 242.82 424.14 244.37C422.98 245.89 421.32 247.18 419.2 248.2C417.08 249.22 414.35 249.74 411.1 249.74H398.5V218.85V218.84Z" fill="white"/>
<path d="M499.35 201.63H481.48V300.47H499.35V201.63Z" fill="white"/>
<path d="M633.77 300.47V201.63L583.46 265.49L534 201.63V300.47H551.34V249.41L583.44 293.73L616.03 247.27V300.47H633.77Z" fill="white"/>
<path d="M719.55 218.84V201.63H653.17V300.47H721.4V283.26H671.05V259.39H714.25V242.18H671.05V218.84H719.55Z" fill="white"/>
<path d="M282.73 276.47C280.7 273.95 277.95 271.64 274.53 269.9C267.79 266.48 263.94 264.99 258.12 264.05C254.87 263.52 251.36 263.17 247.72 262.92C246.89 262.87 246.04 262.81 245.17 262.76C243.78 262.68 242.34 262.59 240.85 262.51C230.03 262.1 218.64 262.23 209.23 261.45C196.8 260.43 185.09 255.92 176.25 244.63C171.18 238.16 165.49 233.08 159.2 229.6C154.79 227.16 150.09 225.5 145.1 224.74C135.12 223.21 127.59 222.52 118.87 222.1C117.13 221.98 115.33 221.81 113.48 221.59C105.58 220.84 97.8901 219.15 90.6101 215.33C85.4701 212.63 83.2701 209.83 78.6001 204.58C78.6001 204.58 79.1401 213.13 79.4401 217.92C79.6901 221.84 81.0501 225.63 83.5101 228.68C85.5401 231.2 88.2901 233.51 91.7101 235.25C98.4501 238.67 102.3 240.16 108.12 241.1C111.37 241.63 114.88 241.98 118.52 242.23C119.35 242.28 120.2 242.34 121.07 242.39C122.46 242.47 123.9 242.56 125.39 242.64C126.87 242.72 128.4 242.8 129.98 242.87C144.14 243.54 157.39 247.78 167.58 260.5C177.33 272.67 189.1 279.54 202.77 281.14C214.21 282.48 230.5 282.82 242 283.01C245.62 283.07 249.21 283.22 252.76 283.55C260.66 284.3 268.35 285.99 275.63 289.81C280.77 292.51 282.97 295.31 287.64 300.56C287.64 300.56 287.1 292.01 286.8 287.22C286.55 283.3 285.19 279.51 282.73 276.46V276.47Z" fill="white"/>
<path d="M83.5101 193.73C85.5401 196.25 88.2901 198.56 91.7101 200.3C98.4501 203.72 102.3 205.21 108.12 206.15C111.37 206.68 114.88 207.03 118.52 207.28C119.35 207.33 120.2 207.39 121.07 207.44C122.46 207.52 123.9 207.61 125.39 207.69C126.87 207.77 128.4 207.85 129.98 207.92C144.14 208.59 157.39 212.83 167.58 225.55C177.33 237.72 189.1 244.59 202.77 246.19C214.21 247.53 230.5 247.87 242 248.06C245.62 248.12 249.21 248.27 252.76 248.6C260.66 249.35 268.35 251.04 275.63 254.86C280.77 257.56 282.97 260.36 287.64 265.61C287.64 265.61 287.1 257.06 286.8 252.27C286.55 248.35 285.19 244.56 282.73 241.51C280.7 238.99 277.95 236.68 274.53 234.94C267.79 231.52 263.94 230.03 258.12 229.09C254.87 228.56 251.36 228.21 247.72 227.96C246.89 227.91 246.04 227.85 245.17 227.8C243.78 227.71 242.34 227.63 240.85 227.55C230.03 227.14 218.64 227.27 209.23 226.49C196.8 225.47 185.09 220.96 176.25 209.67C171.18 203.2 165.49 198.12 159.2 194.64C154.79 192.2 150.09 190.54 145.1 189.78C135.12 188.25 127.59 187.56 118.87 187.14C117.13 187.02 115.33 186.85 113.48 186.63C105.58 185.88 97.8901 184.19 90.6101 180.37C85.4701 177.67 83.2701 174.87 78.6001 169.62C78.6001 169.62 79.1401 178.17 79.4401 182.96C79.6901 186.88 81.0501 190.67 83.5101 193.72V193.73Z" fill="white"/>
<path d="M83.5999 158.84C85.6299 161.36 88.3799 163.67 91.7999 165.41C98.5399 168.83 102.39 170.32 108.21 171.26C111.46 171.79 114.97 172.14 118.61 172.39C119.44 172.44 120.29 172.5 121.16 172.55C122.55 172.64 123.99 172.72 125.48 172.8C126.96 172.88 128.49 172.96 130.07 173.03C144.23 173.7 157.48 177.94 167.67 190.66C177.42 202.83 189.19 209.7 202.86 211.3C214.3 212.64 230.59 212.98 242.09 213.17C245.71 213.23 249.3 213.38 252.85 213.71C260.75 214.46 268.44 216.15 275.72 219.97C280.81 222.64 283.02 225.42 287.58 230.55C287.51 229.35 287.03 221.78 286.75 217.38C286.5 213.46 285.14 209.67 282.68 206.62C280.65 204.1 277.9 201.79 274.48 200.05C272.28 198.93 270.39 198.03 268.64 197.27C273.98 190.32 278.49 182.68 282.06 174.51C284.61 168.67 286.58 162.6 287.97 156.35C287.97 156.35 289.05 152.24 289.75 145.25C289.85 149.8 290.18 152.77 290.24 152.52C290.79 154.97 291.51 157.36 292.41 159.67C294.71 165.57 298.02 170.87 302.25 175.42C306.49 179.98 311.76 183.64 317.88 186.3C324 188.96 330.98 190.35 338.61 190.44C338.98 190.44 339.35 190.45 339.71 190.45C344.06 190.45 348.09 189.97 351.72 189.01C355.63 187.98 359.05 186.72 361.89 185.28C364.7 183.85 366.87 182.62 368.32 181.62L369.15 181.05L361.57 164.96L360.39 165.96C358.19 167.82 355.24 169.51 351.63 171C348.04 172.48 343.8 173.23 339.03 173.23C334.26 173.23 329.77 172.39 325.91 170.74C322.06 169.09 318.71 166.78 315.97 163.86C313.22 160.94 311.08 157.4 309.59 153.33C308.1 149.24 307.34 144.7 307.34 139.82C307.34 134.94 308.18 130.75 309.83 126.76C311.49 122.76 313.76 119.2 316.56 116.18C319.35 113.17 322.66 110.82 326.38 109.17C330.1 107.52 334.04 106.69 338.09 106.69C342.58 106.69 346.65 107.5 350.19 109.1C353.82 110.74 356.88 112.4 359.29 114.04L360.48 114.85L367.53 98.1399L366.67 97.6099C363.34 95.5399 359.18 93.6499 354.3 91.9999C349.38 90.3299 343.75 89.4899 337.55 89.4899C330.53 89.4899 323.96 90.7699 318 93.2999C312.05 95.8199 306.83 99.4199 302.5 103.98C298.17 108.54 294.78 114 292.44 120.21C292.29 120.6 292.17 121 292.03 121.39C291.21 124.5 290.66 127.8 290.3 131.05C290.26 128.47 290.13 125.75 289.9 122.89C289.04 112.36 286.22 102.28 282.03 92.7699C276.47 80.1499 268.73 68.7699 259.02 58.9699C249.3 49.1599 237.92 41.3699 225.21 35.8099C212.46 30.2399 198.74 27.4199 184.4 27.4199C170.06 27.4199 156.06 30.2399 143.31 35.8099C130.59 41.3699 119.26 49.1599 109.63 58.9699C100.02 68.7699 92.3699 80.1499 86.9099 92.7699C81.4999 105.28 78.7299 120.54 78.6699 134.75C78.6699 134.75 79.2299 144.03 79.4899 148.06C79.7399 151.98 81.0999 155.77 83.5599 158.82L83.5999 158.84ZM184.57 45.8999C232.69 45.8999 271.84 85.0499 271.84 133.17C271.84 155.69 263.39 176.83 247.99 193.1C247.95 193.1 247.91 193.1 247.88 193.1C247.88 193.1 247.88 193.1 247.87 193.11C247.8 193.11 247.73 193.1 247.66 193.09C246.83 193.04 245.98 192.98 245.11 192.93C243.72 192.84 242.28 192.76 240.79 192.68C229.97 192.27 218.58 192.4 209.17 191.62C196.74 190.6 185.03 186.09 176.19 174.8C171.12 168.33 165.43 163.25 159.14 159.77C154.73 157.33 150.03 155.67 145.04 154.91C135.06 153.38 127.53 152.69 118.81 152.27C117.07 152.15 115.27 151.98 113.42 151.76C108.42 151.29 103.51 150.43 98.7299 148.9C97.7899 143.73 97.2999 138.45 97.2999 133.18C97.2999 85.0599 136.45 45.9099 184.57 45.9099V45.8999Z" fill="white"/>
</svg>
