<svg width="180" height="70" viewBox="0 0 180 70" fill="none" xmlns="http://www.w3.org/2000/svg">
<g clip-path="url(#clip0_8339_13921)">
<path d="M100.8 36.3324H89.1539V30.8124H99.1439V26.8326H89.1539V21.4353H100.37V17.4531H85.0215V40.3122H100.8V36.3324Z" fill="#EFEDE7"/>
<path d="M110.578 35.0721H118.443L120.524 40.3123H125.29L114.607 17.5156L104.256 40.3123H108.398L110.581 35.0721H110.578ZM114.604 25.4082L117.009 31.46H112.084L114.604 25.4082Z" fill="#EFEDE7"/>
<path d="M131.872 26.3262L148.046 40.3006V17.4531H143.943L143.999 31.4854L127.793 17.5156V40.3122H131.96L131.872 26.3262Z" fill="#EFEDE7"/>
<path d="M72.3364 58.308C73.7771 58.308 75.0166 58.0837 76.0179 57.642C77.0238 57.198 77.8424 56.5944 78.4483 55.8475C79.0496 55.1098 79.4982 54.275 79.7849 53.3662C80.0671 52.4666 80.2104 51.5509 80.2104 50.649C80.2104 49.095 79.8728 47.7468 79.2045 46.6461C78.5362 45.543 77.5626 44.6828 76.3139 44.0884C75.0767 43.5011 73.5736 43.2051 71.8438 43.2051H65.2578V66.0618H69.3902V58.308H72.3341H72.3364ZM69.3926 47.1826H72.4289C73.1781 47.1826 73.7979 47.3028 74.2673 47.5364C74.7367 47.7723 75.1044 48.0729 75.3634 48.4313C75.6294 48.8013 75.8213 49.1968 75.9346 49.6014C76.0502 50.0154 76.1081 50.3877 76.1081 50.7068C76.1081 51.0259 76.0456 51.4029 75.9207 51.8238C75.7959 52.2423 75.5947 52.647 75.3172 53.0286C75.0489 53.3986 74.6651 53.7108 74.1748 53.9559C73.6846 54.201 73.0648 54.3259 72.3364 54.3259H69.3926V47.1826Z" fill="#EFEDE7"/>
<path d="M89.1539 58.308H92.0977C92.1694 58.308 92.2411 58.308 92.3128 58.3057L97.3425 66.0618H102.125L96.5886 57.2535C97.2777 56.8581 97.8605 56.384 98.3276 55.8383C98.952 55.1075 99.4075 54.275 99.685 53.3639C99.9579 52.4643 100.094 51.5509 100.094 50.649C100.094 49.4719 99.8862 48.4082 99.4723 47.4878C99.0584 46.5651 98.4733 45.7766 97.731 45.1406C96.991 44.507 96.0822 44.0191 95.03 43.693C93.987 43.3693 92.8262 43.2051 91.5774 43.2051H85.0215V66.0618H89.1539V58.308ZM89.1539 47.1826H92.1902C92.9187 47.1826 93.5245 47.3051 93.994 47.5503C94.4657 47.7954 94.8404 48.1053 95.1109 48.466C95.3861 48.836 95.5827 49.2291 95.696 49.6338C95.8116 50.0478 95.8694 50.4293 95.8694 50.7716C95.8694 51.13 95.807 51.5208 95.6821 51.9325C95.5595 52.3395 95.3584 52.7279 95.0832 53.0864C94.8149 53.4379 94.431 53.7362 93.9408 53.9721C93.4505 54.208 92.8192 54.3282 92.0677 54.3282H89.1539V47.1849V47.1826Z" fill="#EFEDE7"/>
<path d="M112.474 43.2012H108.342V66.0579H112.474V43.2012Z" fill="#EFEDE7"/>
<path d="M143.56 66.0579V43.2012L131.926 57.9688L120.488 43.2012V66.0579H124.498V54.2503L131.921 64.4993L139.458 53.7554V66.0579H143.56Z" fill="#EFEDE7"/>
<path d="M163.395 47.181V43.2012H148.045V66.0579H163.823V62.0781H152.18V56.5582H162.17V52.5784H152.18V47.181H163.395Z" fill="#EFEDE7"/>
<path d="M62.3808 60.5093C61.9114 59.9266 61.2755 59.3924 60.4846 58.99C58.926 58.1991 58.0357 57.8546 56.6898 57.6372C55.9382 57.5146 55.1265 57.4337 54.2848 57.3759C54.0928 57.3643 53.8963 57.3505 53.6951 57.3389C53.3737 57.3204 53.0407 57.2996 52.6961 57.2811C50.194 57.1863 47.56 57.2163 45.384 57.036C42.5095 56.8001 39.8016 55.7571 37.7573 53.1463C36.5849 51.6501 35.2691 50.4754 33.8145 49.6706C32.7947 49.1064 31.7078 48.7225 30.5539 48.5468C28.246 48.193 26.5047 48.0334 24.4882 47.9363C24.0858 47.9085 23.6696 47.8692 23.2418 47.8183C21.4149 47.6449 19.6366 47.2541 17.9531 46.3707C16.7645 45.7463 16.2557 45.0988 15.1758 43.8848C15.1758 43.8848 15.3007 45.862 15.37 46.9696C15.4278 47.8761 15.7423 48.7526 16.3112 49.4579C16.7807 50.0406 17.4166 50.5748 18.2075 50.9772C19.7661 51.7681 20.6564 52.1126 22.0023 52.33C22.7538 52.4526 23.5655 52.5335 24.4073 52.5913C24.5992 52.6029 24.7958 52.6168 24.997 52.6283C25.3184 52.6468 25.6514 52.6676 25.996 52.6861C26.3382 52.7046 26.692 52.7231 27.0574 52.7393C30.3319 52.8943 33.396 53.8748 35.7524 56.8163C38.0071 59.6306 40.7289 61.2193 43.8901 61.5893C46.5356 61.8991 50.3027 61.9778 52.962 62.0217C53.7992 62.0356 54.6293 62.0703 55.4503 62.1466C57.2772 62.32 59.0555 62.7108 60.739 63.5942C61.9276 64.2186 62.4363 64.8661 63.5163 66.0801C63.5163 66.0801 63.3914 64.1029 63.322 62.9953C63.2642 62.0888 62.9497 61.2123 62.3808 60.507V60.5093Z" fill="#EFEDE7"/>
<path d="M16.3112 41.3743C16.7807 41.957 17.4166 42.4912 18.2075 42.8936C19.7661 43.6845 20.6564 44.029 22.0023 44.2464C22.7538 44.369 23.5655 44.4499 24.4073 44.5077C24.5992 44.5193 24.7958 44.5331 24.997 44.5447C25.3184 44.5632 25.6514 44.584 25.996 44.6025C26.3382 44.621 26.692 44.6395 27.0574 44.6557C30.3319 44.8106 33.396 45.7911 35.7524 48.7326C38.0071 51.547 40.7289 53.1356 43.8901 53.5056C46.5356 53.8155 50.3027 53.8941 52.962 53.9381C53.7992 53.952 54.6293 53.9866 55.4503 54.063C57.2772 54.2364 59.0555 54.6272 60.739 55.5106C61.9276 56.135 62.4363 56.7825 63.5163 57.9965C63.5163 57.9965 63.3914 56.0193 63.322 54.9116C63.2642 54.0051 62.9497 53.1287 62.3808 52.4234C61.9114 51.8406 61.2755 51.3065 60.4846 50.9041C58.926 50.1132 58.0357 49.7686 56.6898 49.5513C55.9382 49.4287 55.1265 49.3478 54.2848 49.29C54.0928 49.2784 53.8963 49.2645 53.6951 49.253C53.3737 49.2321 53.0407 49.2136 52.6961 49.1951C50.194 49.1003 47.56 49.1304 45.384 48.95C42.5095 48.7141 39.8016 47.6712 37.7573 45.0604C36.5849 43.5642 35.2691 42.3895 33.8145 41.5847C32.7947 41.0205 31.7078 40.6366 30.5539 40.4608C28.246 40.107 26.5047 39.9475 24.4882 39.8503C24.0858 39.8226 23.6696 39.7833 23.2418 39.7324C21.4149 39.559 19.6366 39.1681 17.9531 38.2848C16.7645 37.6604 16.2557 37.0129 15.1758 35.7988C15.1758 35.7988 15.3007 37.776 15.37 38.8837C15.4278 39.7902 15.7423 40.6666 16.3112 41.372V41.3743Z" fill="#EFEDE7"/>
<path d="M16.3334 33.3069C16.8029 33.8896 17.4388 34.4238 18.2297 34.8262C19.7883 35.6171 20.6786 35.9616 22.0245 36.179C22.776 36.3016 23.5877 36.3825 24.4295 36.4403C24.6214 36.4519 24.818 36.4658 25.0192 36.4773C25.3406 36.4981 25.6736 36.5166 26.0182 36.5351C26.3604 36.5536 26.7142 36.5721 27.0796 36.5883C30.3541 36.7433 33.4182 37.7238 35.7746 40.6653C38.0293 43.4796 40.7511 45.0683 43.9123 45.4383C46.5578 45.7481 50.3249 45.8268 52.9842 45.8707C53.8214 45.8846 54.6516 45.9193 55.4725 45.9956C57.2994 46.169 59.0777 46.5598 60.7612 47.4432C61.9382 48.0606 62.4493 48.7035 63.5038 49.8898C63.4876 49.6123 63.3766 47.8618 63.3119 46.8443C63.2541 45.9378 62.9395 45.0613 62.3707 44.356C61.9012 43.7733 61.2653 43.2391 60.4744 42.8367C59.9657 42.5777 59.5286 42.3696 59.1239 42.1938C60.3588 40.5866 61.4017 38.8199 62.2273 36.9306C62.817 35.5801 63.2726 34.1764 63.594 32.7311C63.594 32.7311 63.8437 31.7806 64.0056 30.1642C64.0287 31.2164 64.105 31.9032 64.1189 31.8454C64.2461 32.4119 64.4126 32.9646 64.6207 33.4988C65.1526 34.8632 65.9181 36.0888 66.8962 37.141C67.8767 38.1955 69.0954 39.0419 70.5107 39.657C71.9259 40.2721 73.5401 40.5936 75.3045 40.6144C75.3901 40.6144 75.4756 40.6167 75.5589 40.6167C76.5648 40.6167 77.4967 40.5057 78.3362 40.2837C79.2404 40.0455 80.0312 39.7541 80.688 39.4211C81.3378 39.0904 81.8396 38.806 82.1749 38.5748L82.3669 38.4429L80.614 34.7221L80.3411 34.9534C79.8324 35.3835 79.1502 35.7743 78.3154 36.1189C77.4852 36.4611 76.5047 36.6346 75.4016 36.6346C74.2985 36.6346 73.2602 36.4403 72.3676 36.0588C71.4773 35.6772 70.7026 35.143 70.069 34.4678C69.4331 33.7925 68.9382 32.9739 68.5936 32.0327C68.2491 31.0869 68.0733 30.037 68.0733 28.9085C68.0733 27.78 68.2675 26.8111 68.6491 25.8884C69.033 24.9634 69.5579 24.1401 70.2054 23.4418C70.8506 22.7457 71.6161 22.2023 72.4763 21.8207C73.3366 21.4391 74.2477 21.2472 75.1842 21.2472C76.2225 21.2472 77.1637 21.4345 77.9824 21.8045C78.8218 22.1838 79.5294 22.5676 80.0867 22.9469L80.3619 23.1342L81.9922 19.27L81.7934 19.1474C81.0233 18.6688 80.0613 18.2317 78.9328 17.8501C77.7951 17.4639 76.4931 17.2697 75.0594 17.2697C73.436 17.2697 71.9167 17.5657 70.5384 18.1508C69.1625 18.7335 67.9554 19.566 66.9541 20.6205C65.9527 21.675 65.1688 22.9376 64.6277 24.3737C64.593 24.4639 64.5652 24.5564 64.5329 24.6466C64.3432 25.3658 64.216 26.1289 64.1328 26.8804C64.1235 26.2838 64.0935 25.6548 64.0403 24.9935C63.8414 22.5584 63.1893 20.2274 62.2204 18.0282C60.9346 15.1098 59.1447 12.4782 56.8993 10.2119C54.6515 7.94339 52.0199 6.14195 49.0807 4.8562C46.1323 3.56814 42.9595 2.91602 39.6434 2.91602C36.3273 2.91602 33.0898 3.56814 30.1414 4.8562C27.1999 6.14195 24.5798 7.94339 22.3529 10.2119C20.1305 12.4782 18.3615 15.1098 17.0989 18.0282C15.8478 20.9211 15.2072 24.45 15.1934 27.7361C15.1934 27.7361 15.3229 29.8821 15.383 30.814C15.4408 31.7205 15.7553 32.597 16.3242 33.3023L16.3334 33.3069ZM39.6827 7.18951C50.8105 7.18951 59.8639 16.243 59.8639 27.3707C59.8639 32.5785 57.9099 37.4671 54.3486 41.2295C54.3394 41.2295 54.3301 41.2295 54.3232 41.2295C54.3232 41.2295 54.3232 41.2295 54.3209 41.2318C54.3047 41.2318 54.2885 41.2295 54.2723 41.2272C54.0804 41.2156 53.8838 41.2018 53.6826 41.1902C53.3612 41.1694 53.0282 41.1509 52.6836 41.1324C50.1815 41.0376 47.5475 41.0676 45.3715 40.8873C42.497 40.6514 39.7891 39.6084 37.7449 36.9976C36.5724 35.5014 35.2566 34.3267 33.802 33.5219C32.7822 32.9577 31.6954 32.5738 30.5414 32.3981C28.2335 32.0443 26.4922 31.8847 24.4757 31.7876C24.0734 31.7598 23.6571 31.7205 23.2293 31.6696C22.073 31.561 20.9376 31.3621 19.8322 31.0083C19.6149 29.8127 19.5015 28.5917 19.5015 27.373C19.5015 16.2453 28.555 7.19183 39.6827 7.19183V7.18951Z" fill="#EFEDE7"/>
</g>
<defs>
<clipPath id="clip0_8339_13921">
<rect width="180" height="70" fill="white"/>
</clipPath>
</defs>
</svg>
