<svg width="340" height="200" viewBox="0 0 340 200" fill="none" xmlns="http://www.w3.org/2000/svg">
<g clip-path="url(#clip0_8675_533)">
<path d="M320.789 179.664C320.234 178.976 319.487 178.347 318.553 177.873C316.717 176.941 315.665 176.532 314.078 176.277C313.191 176.134 312.234 176.038 311.241 175.969C311.016 175.954 310.783 175.939 310.547 175.925C310.168 175.901 309.774 175.879 309.368 175.857C306.417 175.746 303.312 175.78 300.747 175.568C297.357 175.289 294.164 174.059 291.754 170.983C290.372 169.219 288.818 167.833 287.106 166.884C285.904 166.219 284.622 165.766 283.261 165.558C280.541 165.142 278.486 164.952 276.108 164.839H276.111C275.638 164.806 275.145 164.76 274.641 164.698C272.486 164.495 270.39 164.033 268.406 162.992C267.003 162.256 266.403 161.49 265.133 160.061C265.133 160.061 265.279 162.392 265.361 163.697C265.429 164.765 265.801 165.799 266.472 166.631C267.027 167.318 267.775 167.948 268.708 168.421C270.545 169.354 271.596 169.762 273.183 170.017C274.07 170.16 275.027 170.256 276.02 170.326C276.245 170.34 276.479 170.355 276.715 170.37C277.094 170.393 277.487 170.416 277.893 170.438C278.297 170.46 278.713 170.48 279.145 170.501C283.007 170.683 286.619 171.84 289.397 175.308C292.056 178.627 295.266 180.5 298.991 180.935C302.11 181.3 306.551 181.392 309.687 181.446C310.673 181.462 311.651 181.502 312.619 181.593C314.774 181.797 316.87 182.258 318.854 183.3C320.257 184.036 320.857 184.801 322.127 186.23C322.127 186.23 321.981 183.9 321.898 182.595C321.83 181.527 321.459 180.493 320.788 179.661L320.789 179.664Z" fill="white" fill-opacity="0.49"/>
<path d="M274.643 155.171C272.488 154.968 270.392 154.506 268.408 153.465C267.005 152.729 266.405 151.963 265.135 150.534C265.135 150.534 265.281 152.864 265.363 154.17C265.431 155.238 265.803 156.272 266.474 157.104C267.029 157.791 267.776 158.421 268.71 158.894C270.547 159.826 271.598 160.234 273.185 160.49C274.072 160.633 275.029 160.729 276.022 160.798C276.247 160.813 276.48 160.828 276.716 160.843C277.096 160.866 277.489 160.888 277.895 160.911C278.299 160.933 278.715 160.953 279.147 160.974C283.009 161.155 286.621 162.313 289.399 165.781C292.058 169.1 295.268 170.973 298.993 171.408C302.112 171.772 306.553 171.865 309.689 171.918C310.675 171.935 311.653 171.975 312.621 172.066C314.776 172.27 316.872 172.731 318.856 173.773C320.258 174.509 320.859 175.274 322.129 176.703C322.129 176.703 321.983 174.373 321.9 173.068C321.832 172 321.461 170.966 320.789 170.134C320.235 169.446 319.487 168.817 318.553 168.343C316.717 167.411 315.665 167.004 314.078 166.747C313.192 166.604 312.234 166.508 311.242 166.439C311.016 166.424 310.783 166.409 310.547 166.395C310.168 166.371 309.774 166.349 309.369 166.327C306.417 166.216 303.312 166.25 300.747 166.038C297.358 165.759 294.164 164.529 291.754 161.453C290.372 159.689 288.819 158.303 287.106 157.354C285.904 156.689 284.622 156.236 283.261 156.028C280.541 155.612 278.486 155.422 276.109 155.309H276.112C275.638 155.276 275.146 155.23 274.641 155.168L274.643 155.171Z" fill="white" fill-opacity="0.49"/>
<path d="M320.606 129.583C319.09 126.14 316.979 123.04 314.333 120.367C311.682 117.693 308.58 115.569 305.114 114.054C301.639 112.537 297.895 111.767 293.988 111.767C290.081 111.767 286.261 112.537 282.785 114.054C279.316 115.571 276.228 117.695 273.604 120.369C270.982 123.042 268.898 126.142 267.409 129.585C265.932 132.995 265.177 137.156 265.162 141.031C265.162 141.031 265.316 143.56 265.385 144.661C265.453 145.728 265.824 146.762 266.496 147.594C267.05 148.282 267.798 148.912 268.732 149.385C270.568 150.317 271.62 150.724 273.207 150.981C274.093 151.124 275.051 151.22 276.043 151.289C276.269 151.304 276.502 151.319 276.738 151.333C277.117 151.357 277.511 151.379 277.916 151.401C278.321 151.423 278.737 151.444 279.169 151.465C283.03 151.646 286.643 152.804 289.42 156.272C292.079 159.591 295.289 161.464 299.015 161.899C302.133 162.263 306.574 162.356 309.71 162.409C310.697 162.425 311.675 162.465 312.642 162.557C314.797 162.76 316.893 163.222 318.877 164.263C320.265 164.992 320.867 165.749 322.11 167.15C322.09 166.822 321.96 164.759 321.885 163.56C321.817 162.492 321.445 161.458 320.774 160.626C320.219 159.939 319.472 159.309 318.538 158.835C317.939 158.531 317.424 158.284 316.946 158.079C318.402 156.183 319.632 154.102 320.606 151.875C321.301 150.283 321.838 148.628 322.217 146.923C322.217 146.923 323.192 143.205 322.751 137.797C322.517 134.926 321.746 132.178 320.604 129.585L320.606 129.583ZM311.321 156.933C311.31 156.933 311.3 156.931 311.29 156.93L311.287 156.933C311.268 156.933 311.248 156.93 311.229 156.928C311.004 156.913 310.771 156.899 310.535 156.884C310.156 156.86 309.762 156.838 309.356 156.816C306.405 156.705 303.3 156.739 300.735 156.527C297.345 156.248 294.152 155.018 291.742 151.943C290.36 150.179 288.806 148.792 287.094 147.844C285.892 147.178 284.61 146.726 283.249 146.518C280.529 146.102 278.474 145.911 276.096 145.798H276.099C275.626 145.765 275.133 145.72 274.629 145.658C273.266 145.529 271.925 145.293 270.623 144.877C270.366 143.466 270.233 142.029 270.233 140.591C270.233 127.471 280.908 116.796 294.028 116.796C307.148 116.796 317.823 127.471 317.823 140.591C317.823 146.731 315.52 152.496 311.321 156.93V156.933Z" fill="white" fill-opacity="0.49"/>
</g>
<defs>
<clipPath id="clip0_8675_533">
<rect width="340" height="200" fill="white"/>
</clipPath>
</defs>
</svg>
