<svg width="180" height="70" viewBox="0 0 180 70" fill="none" xmlns="http://www.w3.org/2000/svg">
<g clip-path="url(#clip0_9257_2110)">
<mask id="mask0_9257_2110" style="mask-type:luminance" maskUnits="userSpaceOnUse" x="0" y="0" width="180" height="70">
<path d="M180 0H0V70H180V0Z" fill="white"/>
</mask>
<g mask="url(#mask0_9257_2110)">
<path d="M100.802 36.3324H89.1558V30.8124H99.1458V26.8326H89.1558V21.4353H100.372V17.4531H85.0234V40.3122H100.802V36.3324Z" fill="#3A3A3A"/>
<path d="M110.58 35.0721H118.445L120.526 40.3123H125.292L114.609 17.5156L104.258 40.3123H108.4L110.583 35.0721H110.58ZM114.606 25.4082L117.011 31.46H112.086L114.606 25.4082Z" fill="#3A3A3A"/>
<path d="M131.872 26.3262L148.046 40.3006V17.4531H143.943L143.999 31.4854L127.793 17.5156V40.3122H131.96L131.872 26.3262Z" fill="#3A3A3A"/>
<path d="M72.3364 58.3099C73.7771 58.3099 75.0166 58.0856 76.0179 57.6439C77.0238 57.1999 77.8424 56.5963 78.4483 55.8494C79.0496 55.1117 79.4982 54.2769 79.7849 53.3681C80.0671 52.4685 80.2104 51.5528 80.2104 50.6509C80.2104 49.0969 79.8728 47.7487 79.2045 46.648C78.5362 45.5449 77.5626 44.6847 76.3139 44.0903C75.0767 43.503 73.5736 43.207 71.8438 43.207H65.2578V66.0637H69.3902V58.3099H72.3341H72.3364ZM69.3926 47.1845H72.4289C73.1781 47.1845 73.7979 47.3047 74.2673 47.5383C74.7367 47.7742 75.1044 48.0748 75.3634 48.4332C75.6294 48.8032 75.8213 49.1987 75.9346 49.6033C76.0502 50.0173 76.1081 50.3896 76.1081 50.7087C76.1081 51.0278 76.0456 51.4048 75.9207 51.8257C75.7959 52.2442 75.5947 52.6489 75.3172 53.0305C75.0489 53.4005 74.6651 53.7127 74.1748 53.9578C73.6846 54.2029 73.0648 54.3278 72.3364 54.3278H69.3926V47.1845Z" fill="#3A3A3A"/>
<path d="M89.1558 58.3099H92.0996C92.1713 58.3099 92.243 58.3099 92.3147 58.3076L97.3444 66.0637H102.127L96.5905 57.2554C97.2796 56.86 97.8624 56.3859 98.3295 55.8402C98.9539 55.1094 99.4094 54.2769 99.6869 53.3658C99.9598 52.4662 100.096 51.5528 100.096 50.6509C100.096 49.4738 99.8881 48.4101 99.4742 47.4897C99.0603 46.567 98.4752 45.7785 97.7329 45.1425C96.9929 44.5089 96.0841 44.021 95.0319 43.6949C93.9889 43.3712 92.8281 43.207 91.5793 43.207H85.0234V66.0637H89.1558V58.3099ZM89.1558 47.1845H92.1921C92.9206 47.1845 93.5264 47.307 93.9959 47.5522C94.4676 47.7973 94.8423 48.1072 95.1128 48.4679C95.388 48.8379 95.5846 49.231 95.6979 49.6357C95.8135 50.0497 95.8713 50.4312 95.8713 50.7735C95.8713 51.1319 95.8089 51.5227 95.684 51.9344C95.5614 52.3414 95.3603 52.7298 95.0851 53.0883C94.8168 53.4398 94.4329 53.7381 93.9427 53.974C93.4524 54.2099 92.8211 54.3301 92.0696 54.3301H89.1558V47.1868V47.1845Z" fill="#3A3A3A"/>
<path d="M112.476 43.2031H108.344V66.0598H112.476V43.2031Z" fill="#3A3A3A"/>
<path d="M143.56 66.0598V43.2031L131.926 57.9707L120.488 43.2031V66.0598H124.498V54.2522L131.921 64.5012L139.458 53.7573V66.0598H143.56Z" fill="#3A3A3A"/>
<path d="M163.397 47.1829V43.2031H148.047V66.0598H163.825V62.08H152.182V56.5601H162.172V52.5803H152.182V47.1829H163.397Z" fill="#3A3A3A"/>
<path d="M62.3808 60.5112C61.9114 59.9285 61.2755 59.3943 60.4846 58.9919C58.926 58.201 58.0357 57.8565 56.6898 57.6391C55.9382 57.5165 55.1265 57.4356 54.2848 57.3778C54.0928 57.3662 53.8963 57.3524 53.6951 57.3408C53.3737 57.3223 53.0407 57.3015 52.6961 57.283C50.194 57.1882 47.56 57.2182 45.384 57.0379C42.5095 56.802 39.8016 55.759 37.7573 53.1482C36.5849 51.652 35.2691 50.4773 33.8145 49.6725C32.7947 49.1083 31.7078 48.7244 30.5539 48.5487C28.246 48.1949 26.5047 48.0353 24.4882 47.9382C24.0858 47.9104 23.6696 47.8711 23.2418 47.8202C21.4149 47.6468 19.6366 47.256 17.9531 46.3726C16.7645 45.7482 16.2557 45.1007 15.1758 43.8867C15.1758 43.8867 15.3007 45.8639 15.37 46.9715C15.4278 47.878 15.7423 48.7545 16.3112 49.4598C16.7807 50.0425 17.4166 50.5767 18.2075 50.9791C19.7661 51.77 20.6564 52.1145 22.0023 52.3319C22.7538 52.4545 23.5655 52.5354 24.4073 52.5932C24.5992 52.6048 24.7958 52.6187 24.997 52.6302C25.3184 52.6487 25.6514 52.6695 25.996 52.688C26.3382 52.7065 26.692 52.725 27.0574 52.7412C30.3319 52.8962 33.396 53.8767 35.7524 56.8182C38.0071 59.6325 40.7289 61.2212 43.8901 61.5912C46.5356 61.901 50.3027 61.9797 52.962 62.0236C53.7992 62.0375 54.6293 62.0722 55.4503 62.1485C57.2772 62.3219 59.0555 62.7127 60.739 63.5961C61.9276 64.2205 62.4363 64.868 63.5163 66.082C63.5163 66.082 63.3914 64.1048 63.322 62.9972C63.2642 62.0907 62.9497 61.2142 62.3808 60.5089V60.5112Z" fill="#3A3A3A"/>
<path d="M16.3112 41.3763C16.7807 41.959 17.4166 42.4932 18.2075 42.8956C19.7661 43.6865 20.6564 44.031 22.0023 44.2484C22.7538 44.371 23.5655 44.4519 24.4073 44.5097C24.5992 44.5213 24.7958 44.5351 24.997 44.5467C25.3184 44.5652 25.6514 44.586 25.996 44.6045C26.3382 44.623 26.692 44.6415 27.0574 44.6577C30.3319 44.8126 33.396 45.7931 35.7524 48.7346C38.0071 51.549 40.7289 53.1376 43.8901 53.5076C46.5356 53.8175 50.3027 53.8961 52.962 53.9401C53.7992 53.954 54.6293 53.9886 55.4503 54.065C57.2772 54.2384 59.0555 54.6292 60.739 55.5126C61.9276 56.137 62.4363 56.7845 63.5163 57.9985C63.5163 57.9985 63.3914 56.0213 63.322 54.9136C63.2642 54.0071 62.9497 53.1307 62.3808 52.4254C61.9114 51.8426 61.2755 51.3085 60.4846 50.9061C58.926 50.1152 58.0357 49.7706 56.6898 49.5533C55.9382 49.4307 55.1265 49.3498 54.2848 49.292C54.0928 49.2804 53.8963 49.2665 53.6951 49.255C53.3737 49.2341 53.0407 49.2156 52.6961 49.1971C50.194 49.1023 47.56 49.1324 45.384 48.952C42.5095 48.7161 39.8016 47.6732 37.7573 45.0624C36.5849 43.5662 35.2691 42.3915 33.8145 41.5867C32.7947 41.0225 31.7078 40.6386 30.5539 40.4628C28.246 40.109 26.5047 39.9495 24.4882 39.8523C24.0858 39.8246 23.6696 39.7853 23.2418 39.7344C21.4149 39.561 19.6366 39.1701 17.9531 38.2868C16.7645 37.6624 16.2557 37.0149 15.1758 35.8008C15.1758 35.8008 15.3007 37.778 15.37 38.8857C15.4278 39.7922 15.7423 40.6686 16.3112 41.374V41.3763Z" fill="#3A3A3A"/>
<path d="M16.3353 33.3088C16.8048 33.8915 17.4407 34.4257 18.2316 34.8281C19.7902 35.619 20.6805 35.9636 22.0264 36.181C22.7779 36.3036 23.5896 36.3844 24.4314 36.4422C24.6233 36.4538 24.8199 36.4677 25.0211 36.4792C25.3425 36.5 25.6755 36.5185 26.0201 36.537C26.3623 36.5555 26.7161 36.574 27.0815 36.5902C30.356 36.7452 33.4201 37.7257 35.7765 40.6672C38.0312 43.4815 40.753 45.0703 43.9142 45.4403C46.5597 45.7501 50.3268 45.8288 52.9861 45.8727C53.8233 45.8866 54.6535 45.9213 55.4744 45.9976C57.3013 46.171 59.0796 46.5617 60.7631 47.4451C61.9401 48.0625 62.4512 48.7055 63.5057 49.8918C63.4895 49.6143 63.3785 47.8637 63.3138 46.8462C63.256 45.9397 62.9414 45.0632 62.3726 44.3579C61.9031 43.7752 61.2672 43.241 60.4763 42.8386C59.9676 42.5796 59.5305 42.3716 59.1258 42.1958C60.3607 40.5886 61.4036 38.8218 62.2292 36.9325C62.8189 35.582 63.2745 34.1783 63.5959 32.733C63.5959 32.733 63.8456 31.7825 64.0075 30.1661C64.0306 31.2183 64.1069 31.9051 64.1208 31.8473C64.248 32.4138 64.4145 32.9665 64.6226 33.5007C65.1545 34.8651 65.92 36.0907 66.8981 37.1429C67.8786 38.1974 69.0973 39.0439 70.5126 39.659C71.9278 40.2741 73.542 40.5955 75.3064 40.6163C75.392 40.6163 75.4775 40.6186 75.5608 40.6186C76.5667 40.6186 77.4986 40.5076 78.3381 40.2856C79.2423 40.0474 80.0331 39.756 80.6899 39.423C81.3397 39.0923 81.8415 38.8079 82.1768 38.5767L82.3688 38.4449L80.6159 34.724L80.343 34.9553C79.8343 35.3854 79.1521 35.7762 78.3173 36.1208C77.4871 36.463 76.5066 36.6366 75.4035 36.6366C74.3004 36.6366 73.2621 36.4422 72.3695 36.0607C71.4792 35.6791 70.7045 35.1449 70.0709 34.4697C69.435 33.7944 68.9401 32.9758 68.5955 32.0346C68.251 31.0888 68.0752 30.0389 68.0752 28.9104C68.0752 27.7819 68.2694 26.813 68.651 25.8903C69.0349 24.9653 69.5598 24.142 70.2073 23.4437C70.8525 22.7476 71.618 22.2042 72.4782 21.8226C73.3385 21.441 74.2496 21.2491 75.1861 21.2491C76.2244 21.2491 77.1656 21.4364 77.9843 21.8064C78.8237 22.1857 79.5313 22.5695 80.0886 22.9488L80.3638 23.1361L81.9941 19.2719L81.7953 19.1493C81.0252 18.6707 80.0632 18.2336 78.9347 17.852C77.797 17.4658 76.495 17.2716 75.0613 17.2716C73.4379 17.2716 71.9186 17.5677 70.5403 18.1528C69.1644 18.7355 67.9573 19.5679 66.956 20.6224C65.9546 21.6769 65.1707 22.9395 64.6296 24.3756C64.5949 24.4658 64.5671 24.5584 64.5348 24.6486C64.3451 25.3678 64.2179 26.1308 64.1347 26.8823C64.1254 26.2857 64.0954 25.6567 64.0422 24.9954C63.8433 22.5603 63.1912 20.2293 62.2223 18.0301C60.9365 15.1117 59.1466 12.4801 56.9012 10.2138C54.6534 7.94534 52.0218 6.1439 49.0826 4.85815C46.1342 3.57009 42.9614 2.91797 39.6453 2.91797C36.3292 2.91797 33.0917 3.57009 30.1433 4.85815C27.2018 6.1439 24.5817 7.94534 22.3548 10.2138C20.1324 12.4801 18.3634 15.1117 17.1008 18.0301C15.8497 20.923 15.2091 24.4519 15.1953 27.738C15.1953 27.738 15.3248 29.884 15.3849 30.8159C15.4427 31.7224 15.7572 32.5989 16.3261 33.3042L16.3353 33.3088ZM39.6846 7.19146C50.8124 7.19146 59.8658 16.245 59.8658 27.3727C59.8658 32.5805 57.9118 37.469 54.3505 41.2314C54.3413 41.2314 54.332 41.2314 54.3251 41.2314C54.3251 41.2314 54.3251 41.2314 54.3228 41.2337C54.3066 41.2337 54.2904 41.2314 54.2742 41.2291C54.0823 41.2175 53.8857 41.2038 53.6845 41.1922C53.3631 41.1714 53.0301 41.1528 52.6855 41.1343C50.1834 41.0395 47.5494 41.0695 45.3734 40.8892C42.4989 40.6533 39.791 39.6103 37.7468 36.9995C36.5743 35.5033 35.2585 34.3286 33.8039 33.5238C32.7841 32.9596 31.6973 32.5758 30.5433 32.4001C28.2354 32.0463 26.4941 31.8866 24.4776 31.7895C24.0753 31.7617 23.659 31.7224 23.2312 31.6715C22.0749 31.5629 20.9395 31.3641 19.8341 31.0103C19.6168 29.8147 19.5034 28.5936 19.5034 27.3749C19.5034 16.2472 28.5569 7.19378 39.6846 7.19378V7.19146Z" fill="#3A3A3A"/>
</g>
</g>
<defs>
<clipPath id="clip0_9257_2110">
<rect width="180" height="70" fill="white"/>
</clipPath>
</defs>
</svg>
