<svg width="256" height="256" viewBox="0 0 256 256" fill="none" xmlns="http://www.w3.org/2000/svg">
<path d="M197.073 206.832C195.636 205.061 193.701 203.441 191.283 202.221C186.529 199.821 183.806 198.768 179.697 198.111C177.4 197.743 174.922 197.496 172.351 197.318C171.768 197.279 171.165 197.241 170.554 197.205C169.573 197.143 168.553 197.086 167.501 197.03C159.861 196.744 151.821 196.831 145.18 196.285C136.403 195.567 128.135 192.4 121.896 184.479C118.317 179.937 114.294 176.368 109.861 173.924C106.749 172.212 103.429 171.046 99.9055 170.51C92.8629 169.439 87.5422 168.95 81.3851 168.659H81.3928C80.1682 168.574 78.8917 168.455 77.5867 168.296C72.007 167.773 66.5801 166.583 61.4432 163.903C57.8106 162.008 56.257 160.035 52.9688 156.355C52.9688 156.355 53.3468 162.358 53.5591 165.718C53.7351 168.468 54.6983 171.131 56.4356 173.273C57.8726 175.042 59.8094 176.664 62.2251 177.882C66.9815 180.285 69.7027 181.335 73.8118 181.992C76.1084 182.36 78.5861 182.607 81.1572 182.787C81.7398 182.823 82.3457 182.862 82.9567 182.901C83.938 182.96 84.9556 183.019 86.0068 183.076C87.0528 183.132 88.1299 183.184 89.2484 183.238C99.2479 183.707 108.6 186.686 115.793 195.616C122.677 204.162 130.989 208.985 140.633 210.105C148.709 211.045 160.208 211.282 168.327 211.421C170.88 211.462 173.413 211.565 175.919 211.8C181.499 212.325 186.926 213.512 192.062 216.195C195.695 218.09 197.249 220.06 200.537 223.74C200.537 223.74 200.159 217.74 199.944 214.38C199.768 211.63 198.807 208.967 197.07 206.825L197.073 206.832Z" fill="white" fill-opacity="0.25"/>
<path d="M77.5906 143.764C72.0109 143.242 66.584 142.052 61.447 139.371C57.8144 137.476 56.2609 135.504 52.9727 131.824C52.9727 131.824 53.3507 137.824 53.563 141.187C53.739 143.937 54.7022 146.599 56.4395 148.742C57.8765 150.511 59.8107 152.133 62.229 153.351C66.9853 155.751 69.7065 156.801 73.8156 157.461C76.1122 157.829 78.5901 158.076 81.1611 158.254C81.7437 158.292 82.347 158.331 82.958 158.37C83.9419 158.429 84.9594 158.485 86.0106 158.545C87.0567 158.601 88.1338 158.653 89.2523 158.707C99.2518 159.173 108.604 162.155 115.797 171.085C122.681 179.631 130.993 184.454 140.637 185.574C148.713 186.511 160.212 186.751 168.331 186.887C170.884 186.931 173.416 187.034 175.923 187.268C181.502 187.794 186.929 188.981 192.066 191.664C195.696 193.559 197.252 195.529 200.541 199.208C200.541 199.208 200.163 193.209 199.948 189.848C199.772 187.098 198.811 184.436 197.071 182.293C195.637 180.522 193.7 178.902 191.282 177.682C186.528 175.282 183.804 174.234 179.695 173.572C177.401 173.204 174.921 172.957 172.352 172.779C171.767 172.74 171.164 172.702 170.553 172.666C169.571 172.604 168.551 172.547 167.503 172.491C159.859 172.205 151.82 172.292 145.179 171.746C136.404 171.028 128.134 167.861 121.894 159.94C118.316 155.398 114.295 151.829 109.86 149.385C106.747 147.673 103.428 146.507 99.9042 145.971C92.8616 144.9 87.5409 144.411 81.3864 144.12H81.3941C80.1669 144.035 78.893 143.916 77.5854 143.757L77.5906 143.764Z" fill="white" fill-opacity="0.25"/>
<path d="M196.594 77.8755C192.669 69.0099 187.203 61.0275 180.352 54.1447C173.488 47.2592 165.456 41.79 156.482 37.8889C147.485 33.9827 137.791 32 127.675 32C117.559 32 107.668 33.9827 98.6683 37.8889C89.6865 41.7952 81.691 47.2644 74.897 54.1498C68.1082 61.0327 62.7123 69.0151 58.857 77.8807C55.0328 86.6613 53.0779 97.3757 53.0391 107.354C53.0391 107.354 53.4379 113.866 53.6165 116.701C53.7926 119.448 54.7531 122.111 56.4931 124.253C57.9275 126.025 59.8642 127.647 62.2825 128.865C67.0362 131.265 69.7601 132.313 73.8691 132.975C76.1631 133.343 78.6436 133.59 81.212 133.768C81.7972 133.806 82.4005 133.845 83.0115 133.881C83.9928 133.943 85.0129 133.999 86.0615 134.056C87.1102 134.113 88.1873 134.167 89.3059 134.221C99.3027 134.687 108.657 137.669 115.848 146.599C122.732 155.145 131.044 159.968 140.691 161.088C148.764 162.025 160.262 162.265 168.382 162.401C170.938 162.442 173.47 162.545 175.974 162.782C181.553 163.305 186.98 164.495 192.117 167.175C195.711 169.052 197.27 171.002 200.488 174.609C200.436 173.764 200.1 168.452 199.906 165.365C199.73 162.615 198.766 159.952 197.029 157.81C195.592 156.041 193.658 154.419 191.24 153.198C189.689 152.415 188.355 151.779 187.118 151.252C190.887 146.369 194.072 141.011 196.594 135.277C198.393 131.177 199.784 126.916 200.765 122.525C200.765 122.525 203.29 112.952 202.148 99.0262C201.542 91.6335 199.546 84.5575 196.589 77.8807L196.594 77.8755ZM172.553 148.301C172.525 148.301 172.499 148.296 172.473 148.293L172.465 148.301C172.416 148.301 172.364 148.293 172.315 148.288C171.733 148.249 171.129 148.213 170.518 148.175C169.537 148.113 168.517 148.056 167.466 147.999C159.825 147.714 151.785 147.801 145.144 147.255C136.367 146.537 128.1 143.37 121.86 135.452C118.281 130.909 114.258 127.338 109.825 124.897C106.713 123.182 103.394 122.018 99.8697 121.482C92.8271 120.411 87.5064 119.919 81.3493 119.629H81.357C80.1323 119.544 78.8559 119.428 77.5509 119.268C74.0219 118.936 70.5497 118.328 67.1786 117.257C66.5132 113.624 66.1689 109.923 66.1689 106.221C66.1689 72.4372 93.8085 44.9495 127.779 44.9495C161.749 44.9495 189.388 72.4372 189.388 106.221C189.388 122.031 183.425 136.876 172.553 148.293V148.301Z" fill="white" fill-opacity="0.25"/>
</svg>
